<svg xmlns="http://www.w3.org/2000/svg" version="1.1" viewBox="0 0 2000 413.87" width="2500" height="517"><defs><linearGradient id="a" x1="-604" y1="1219.91" x2="-144.18" y2="1219.91" gradientTransform="translate(604 1512.21) scale(1 -1)" gradientUnits="userSpaceOnUse"><stop offset=".3" stop-color="#fdb913"/><stop offset=".75" stop-color="#f7941f"/></linearGradient></defs><path d="M1271.09 289.54c0 64.14-30.86 124.23-102.82 124.23-27.09 0-46.14-9.24-59.04-22.01l-5.91 22.01h-35.05V96.85h44.46v195.69c0 39.64 9.59 82.6 57.15 82.36 46.12-.22 56.25-45.01 56.25-82.36s-10.16-81.86-56.27-82.06c-9.68.11-19.27 1.9-28.33 5.3v-36.14c12.28-4.89 25.34-7.56 38.55-7.89 63.03 0 91.01 62.27 91.01 117.78ZM868.15 413.77h44.48V96.85h-44.48v316.91Zm795.62-241.92c-13.21.33-26.27 3-38.55 7.89v36.13c9.06-3.4 18.65-5.19 28.33-5.3 46.11.2 56.27 44.72 56.27 82.05s-10.18 82.08-56.36 82.27c-47.56.24-57.15-42.72-57.15-82.36V96.85h-44.45v316.93h35.05l5.88-22.01c12.92 12.77 31.98 22.01 59.08 22.01 71.91 0 102.82-60.11 102.82-124.23 0-55.53-27.98-117.8-90.91-117.8v.09Zm316.03 179.41V268.2c0-65.38-42.15-96.24-90.74-96.24-51.32 0-87.39 33.35-87.39 33.35l21.23 30.34c4.8-3.84 30.3-22.93 63.73-22.93 28.53 0 51.65 13.08 51.65 56.91v51.63c0 38.6-39.23 55.16-65.68 55.16-23.52 0-40.8-9.42-40.8-30.23 0-35.24 48.39-45.77 77.59-44.28v-33.98c-64.02-3.29-121.41 23.32-121.41 80.92 0 40.06 31.08 64.86 77.62 64.86 34.88 0 65.02-13.45 79.74-28.14 7.89 20.18 29.32 28.14 45.95 28.14l8.71-32.52c-13.98-3.05-20.14-9.74-20.14-30.01l-.06.09Zm-483.6 0V268.2c0-65.38-42.15-96.24-90.73-96.24-51.33 0-87.4 33.35-87.4 33.35l21.25 30.34c4.77-3.84 30.27-22.93 63.7-22.93 28.53 0 51.67 13.08 51.67 56.91v51.63c0 38.6-39.23 55.16-65.71 55.16-23.52 0-40.8-9.42-40.8-30.23 0-35.24 48.38-45.77 77.59-44.28v-33.98c-64.01-3.29-121.42 23.32-121.42 80.92 0 40.06 31.08 64.86 77.63 64.86 34.87 0 65.01-13.45 79.75-28.14 7.89 20.18 29.31 28.14 45.94 28.14l8.72-32.52c-14-3.05-20.14-9.74-20.14-30.01l-.07.09Zm-683.69 0V268.2c0-65.38-42.15-96.24-90.73-96.24-51.33 0-87.4 33.35-87.4 33.35l21.32 30.34c4.77-3.84 30.29-22.93 63.7-22.93 28.55 0 51.67 13.08 51.67 56.91v51.63c0 38.6-39.23 55.16-65.71 55.16-23.49 0-40.78-9.42-40.78-30.23 0-35.24 48.36-45.77 77.59-44.28v-33.98c-64.03-3.2-121.35 23.41-121.35 81.01 0 40.06 31.08 64.86 77.63 64.86 34.87 0 64.99-13.45 79.72-28.14 7.91 20.18 29.31 28.14 45.97 28.14l8.72-32.52c-14.14-3.14-20.25-9.83-20.25-30.1l-.11.09Zm155.64 62.61h44.46V179.12h-44.46zm0-272.42h44.46V96.86h-44.46z"/><path d="M412.59 390.27c-2.18 3.94-7.43 5.73-12.1 7.06l-53.16 15.02c-4.66 1.31-10.48 2.38-14.38.15-3.9-2.22-5.84-7.74-7.08-12.38C248.67 112.18 238.02 50.1 206.96 50.1s-41.63 62.07-118.91 350.02c-1.24 4.64-3.23 10.16-7.08 12.38-3.86 2.22-9.74 1.15-14.41-.15L13.4 397.33c-4.66-1.33-9.89-3.12-12.07-7.06-2.18-3.95-1.22-9.72 0-14.23C80.33 82.84 124.47 0 206.96 0s126.71 82.82 205.61 376.04c1.22 4.51 2.14 10.42.02 14.23" fill="#fdb913"/><path d="M459.82 205.06c-.05 2.82-.69 5.6-1.9 8.15l-2.18 6.04c-.96 3.57-3.12 6.7-6.12 8.85-3.5 1.47-7.4 1.69-11.05.63a311.27 311.27 0 0 0-205.24 25.03 311.35 311.35 0 0 0-144.28 148.1c-2.18 4.8-5.62 11.92-13.38 11.92-3.11-.01-6.19-.5-9.15-1.44l-53.16-15.02h-.13C7.08 395.58 0 393.2 0 384.9c.23-3.59 1.21-7.1 2.88-10.29a353.1 353.1 0 0 1 187.64-178.06 353.06 353.06 0 0 1 258.67-2.35c4.14 1.53 10.64 3.97 10.64 10.85Z" fill="url(#a)"/></svg>