<?xml version="1.0" standalone="no"?>
<!DOCTYPE svg PUBLIC "-//W3C//DTD SVG 20010904//EN"
 "http://www.w3.org/TR/2001/REC-SVG-20010904/DTD/svg10.dtd">
<svg version="1.0" xmlns="http://www.w3.org/2000/svg"
 width="700.000000pt" height="700.000000pt" viewBox="0 0 700.000000 700.000000"
 preserveAspectRatio="xMidYMid meet">
<metadata>
Created by potrace 1.14, written by Peter Selinger 2001-2017
</metadata>
<g transform="translate(0.000000,700.000000) scale(0.100000,-0.100000)"
fill="#000000" stroke="none">
<path d="M0 3500 l0 -3500 3500 0 3500 0 0 3500 0 3500 -3500 0 -3500 0 0
-3500z m3703 1195 c47 -8 117 -26 155 -40 92 -33 111 -32 152 10 40 41 77 47
84 13 13 -68 56 -572 49 -578 -15 -13 -70 -28 -80 -21 -5 3 -26 43 -46 89 -76
178 -183 310 -290 361 -74 35 -114 42 -216 42 -148 0 -269 -75 -326 -202 -25
-57 -27 -68 -23 -168 3 -83 9 -117 27 -159 50 -112 195 -202 493 -305 202 -70
291 -120 394 -222 136 -134 179 -250 178 -480 -1 -122 -5 -151 -28 -230 -47
-155 -125 -273 -236 -356 -129 -96 -239 -129 -434 -129 -220 0 -346 36 -508
141 -42 28 -83 49 -91 47 -8 -1 -30 -23 -49 -48 -36 -48 -67 -60 -88 -36 -10
13 -8 69 14 308 35 390 28 358 86 358 52 0 60 -8 60 -63 0 -60 31 -162 75
-254 104 -214 280 -324 495 -310 247 15 406 192 385 430 -13 149 -66 250 -172
324 -73 51 -126 77 -288 143 -168 68 -241 105 -351 178 -209 140 -284 285
-286 552 -1 175 47 295 162 410 150 150 291 208 511 209 59 1 145 -6 192 -14z
m2069 -14 c112 -24 247 -70 332 -113 32 -16 63 -27 70 -25 6 3 20 30 29 61
l18 57 42 -3 42 -3 8 -80 c8 -88 64 -568 73 -628 6 -35 4 -38 -30 -52 -19 -8
-42 -15 -49 -15 -9 0 -28 34 -47 83 -123 308 -340 521 -599 588 -105 27 -268
27 -374 0 -112 -29 -190 -74 -278 -161 -165 -163 -245 -379 -256 -686 -6 -179
3 -271 44 -429 81 -313 256 -552 488 -664 108 -53 169 -65 310 -65 214 0 402
59 570 179 62 44 158 139 189 188 23 35 45 34 81 -3 36 -38 32 -46 -69 -168
-184 -221 -401 -354 -665 -408 -129 -25 -408 -15 -551 20 -301 76 -552 273
-690 542 -153 298 -184 696 -79 1018 138 421 460 707 880 781 119 20 382 13
511 -14z m-4224 -76 l-3 -60 -110 -5 c-120 -5 -149 -16 -182 -67 -26 -40 -37
-530 -24 -1063 11 -444 17 -500 68 -628 73 -182 293 -304 518 -288 300 21 482
170 556 456 20 79 22 114 26 480 7 547 -17 961 -58 1042 -26 52 -50 62 -154
68 l-90 5 0 60 0 60 385 0 385 0 3 -39 c2 -22 1 -50 -2 -63 -6 -22 -11 -23
-92 -23 -101 0 -134 -14 -160 -67 -17 -35 -19 -83 -25 -628 -8 -631 -17 -784
-54 -931 -63 -248 -226 -441 -446 -528 -116 -46 -179 -58 -333 -63 -168 -6
-286 6 -416 44 -124 36 -194 77 -286 168 -124 123 -185 264 -215 495 -6 51
-13 345 -15 730 -2 355 -7 664 -10 687 -10 78 -26 87 -156 93 l-113 5 -3 60
-3 61 506 0 506 0 -3 -61z"/>
</g>
</svg>
